<svg width="30" height="30" viewBox="0 0 30 30" fill="none" xmlns="http://www.w3.org/2000/svg">
<path d="M25 7.92154V6.99997C25 6.2999 24.9995 5.94992 24.8633 5.68253C24.7434 5.44732 24.5532 5.25608 24.318 5.13624C24.0506 5 23.6996 5 22.9995 5H6.99951C6.29945 5 5.94976 5 5.68237 5.13624C5.44717 5.25608 5.25608 5.44732 5.13624 5.68253C5 5.94992 5 6.2999 5 6.99997V7.92154C5 8.22728 5 8.38021 5.03454 8.52407C5.06516 8.65161 5.11579 8.7735 5.18433 8.88535C5.2616 9.01145 5.36968 9.11953 5.58574 9.33558L5.58594 9.33578L11.9144 15.6642C12.1305 15.8804 12.2383 15.9885 12.3156 16.1146C12.3842 16.2265 12.4352 16.3484 12.4658 16.476C12.5 16.6184 12.5 16.7696 12.5 17.0691V17.0784V23.0139C12.5 24.0854 12.5 24.6212 12.7257 24.9439C12.9227 25.2256 13.2268 25.4138 13.5669 25.4641C13.9564 25.5217 14.4359 25.282 15.3943 24.8028L16.3943 24.3028C16.7956 24.1022 16.996 24.0018 17.1426 23.8521C17.2723 23.7197 17.3712 23.5602 17.4316 23.385C17.5 23.1869 17.5 22.9626 17.5 22.5139V17.0784C17.5 16.7727 17.5 16.6198 17.5345 16.476C17.5652 16.3484 17.6158 16.2265 17.6843 16.1146C17.7616 15.9886 17.8696 15.8805 18.0856 15.6645L18.0859 15.6642L24.4144 9.33578C24.6306 9.1196 24.7383 9.01149 24.8156 8.88535C24.8842 8.7735 24.9352 8.65161 24.9658 8.52407C25 8.38168 25 8.2304 25 7.93087V7.92154Z" stroke="#002A48" stroke-width="2" stroke-linecap="round" stroke-linejoin="round"/>
</svg>
